<svg xmlns="http://www.w3.org/2000/svg" viewBox="0 0 500 500"><defs><style>.cls-1{isolation:isolate;}.cls-2{fill:#0d6efd;}.cls-3,.cls-4,.cls-5{fill:#fff;}.cls-3{mix-blend-mode:screen;}.cls-4{mix-blend-mode:multiply;opacity:0.37;}.cls-5{font-size:57px;font-family:Perpetua;}</style></defs><g class="cls-1"><g id="BACKGROUND"><rect class="cls-2" width="500" height="500"/></g><g id="OBJECTS"><polygon class="cls-3" points="333.61 212.95 259.65 127.19 371.49 127.19 445.45 212.95 336.92 338.78 225.09 338.78 333.61 212.95"/><polygon class="cls-3" points="445.45 212.95 333.61 212.95 225.09 338.78 445.45 212.95"/><polygon class="cls-3" points="445.45 212.95 333.61 212.95 225.09 338.78 445.45 212.95"/><polygon class="cls-4" points="445.45 212.95 333.61 212.95 316.33 232.99 445.45 212.95"/><polygon class="cls-3" points="445.45 212.95 325.69 275.87 225.09 338.78 445.45 212.95"/><polygon class="cls-3" points="445.45 212.95 371.49 127.19 259.65 127.19 445.45 212.95"/><polygon class="cls-3" points="445.45 212.95 371.49 127.19 259.65 127.19 445.45 212.95"/><polygon class="cls-4" points="445.45 212.95 333.61 212.95 259.65 127.19 445.45 212.95"/><polygon class="cls-3" points="445.45 212.95 352.55 165.24 259.65 127.19 445.45 212.95"/><polygon class="cls-3" points="166.39 287.05 240.34 372.81 128.51 372.81 54.55 287.05 163.08 161.22 274.91 161.22 166.39 287.05"/><polygon class="cls-3" points="54.55 287.05 166.39 287.05 274.91 161.22 54.55 287.05"/><polygon class="cls-3" points="54.55 287.05 166.39 287.05 274.91 161.22 54.55 287.05"/><polygon class="cls-4" points="54.55 287.05 166.39 287.05 183.67 267.01 54.55 287.05"/><polygon class="cls-3" points="54.55 287.05 174.31 224.13 274.91 161.22 54.55 287.05"/><polygon class="cls-3" points="54.55 287.05 128.51 372.81 240.34 372.81 54.55 287.05"/><polygon class="cls-3" points="54.55 287.05 128.51 372.81 240.34 372.81 54.55 287.05"/><polygon class="cls-4" points="54.55 287.05 166.39 287.05 240.34 372.81 54.55 287.05"/><polygon class="cls-3" points="54.55 287.05 147.45 334.76 240.34 372.81 54.55 287.05"/><text class="cls-5" transform="translate(47.79 421.25)">ALGO COMPILER</text></g></g></svg>